<svg id="Layer_1" data-name="Layer 1" xmlns="http://www.w3.org/2000/svg" xmlns:xlink="http://www.w3.org/1999/xlink" viewBox="0 0 439.38 128"><defs><style>.cls-1{fill:#2b6431;}.cls-2{fill:url(#linear-gradient);}.cls-3{fill:url(#linear-gradient-2);}.cls-4{fill:url(#linear-gradient-3);}.cls-5{fill:url(#linear-gradient-4);}.cls-6{fill:url(#linear-gradient-5);}.cls-7{fill:url(#linear-gradient-6);}.cls-8{fill:url(#linear-gradient-7);}.cls-9{fill:url(#linear-gradient-8);}.cls-10{fill:url(#linear-gradient-9);}.cls-11{fill:url(#linear-gradient-10);}.cls-12{fill:#205125;}</style><linearGradient id="linear-gradient" x1="12.96" y1="78.78" x2="153.42" y2="78.78" gradientUnits="userSpaceOnUse"><stop offset="0.2" stop-color="#71a86c"/><stop offset="0.89" stop-color="#2b6433"/></linearGradient><linearGradient id="linear-gradient-2" y1="47.43" x2="138.98" y2="47.43" gradientUnits="userSpaceOnUse"><stop offset="0.27" stop-color="#1d3d63"/><stop offset="1" stop-color="#467f9a"/></linearGradient><linearGradient id="linear-gradient-3" x1="277.93" y1="102.55" x2="277.93" y2="0.27" gradientUnits="userSpaceOnUse"><stop offset="0" stop-color="#06090c"/><stop offset="0.88" stop-color="#005a9c"/></linearGradient><linearGradient id="linear-gradient-4" x1="372.52" y1="103.03" x2="372.52" y2="6.4" xlink:href="#linear-gradient-3"/><linearGradient id="linear-gradient-5" x1="419.23" y1="103.03" x2="419.23" y2="6.4" xlink:href="#linear-gradient-3"/><linearGradient id="linear-gradient-6" x1="180.95" y1="103.03" x2="180.95" y2="6.4" xlink:href="#linear-gradient-3"/><linearGradient id="linear-gradient-7" x1="231.47" y1="103.03" x2="231.47" y2="6.4" xlink:href="#linear-gradient-3"/><linearGradient id="linear-gradient-8" x1="326.09" y1="103.03" x2="326.09" y2="6.4" xlink:href="#linear-gradient-3"/><linearGradient id="linear-gradient-9" x1="374.46" y1="62" x2="371.4" y2="52.64" gradientUnits="userSpaceOnUse"><stop offset="0.33" stop-color="#427648"/><stop offset="0.75" stop-color="#609960"/><stop offset="1" stop-color="#6da76a"/></linearGradient><linearGradient id="linear-gradient-10" x1="372.13" y1="39.62" x2="373.98" y2="49.07" gradientUnits="userSpaceOnUse"><stop offset="0.33" stop-color="#427f52"/><stop offset="0.75" stop-color="#306c32"/><stop offset="1" stop-color="#306d35"/></linearGradient></defs><path class="cls-1" d="M153.42,62.22,119.57,29.56,86.92,62.22H98.35c0,.59.09,1.18.09,1.78a21.48,21.48,0,0,1-42.95,0c0-.6,0-1.19.09-1.78H13c0,.59,0,1.18,0,1.78a64,64,0,0,0,128,0c0-.6,0-1.19,0-1.78Z"/><path class="cls-2" d="M153.42,62.22,119.57,29.56,86.92,62.22H98.35c0,.59.09,1.18.09,1.78a21.48,21.48,0,0,1-42.95,0c0-.6,0-1.19.09-1.78H13c0,.59,0,1.18,0,1.78a64,64,0,0,0,128,0c0-.6,0-1.19,0-1.78Z"/><path class="cls-3" d="M77,42.53A21.43,21.43,0,0,1,95.65,53.48h0l23.91-23.91L139,48.29A64,64,0,0,0,13,62.22H0L33.85,94.87,66.5,62.22H55.58A21.46,21.46,0,0,1,77,42.53Z"/><path class="cls-4" d="M298.09,7.53a1.63,1.63,0,0,0-1.62-1.62H259.39a1.62,1.62,0,0,0-1.61,1.62v9a1.61,1.61,0,0,0,1.61,1.62h11.06a1.61,1.61,0,0,1,1.61,1.62v82.11a1.62,1.62,0,0,0,1.62,1.62h9a1.62,1.62,0,0,0,1.62-1.62V19.78a1.61,1.61,0,0,1,1.61-1.62h10.55a1.62,1.62,0,0,0,1.62-1.62Z"/><path class="cls-5" d="M389.67,16.51v-9A1.65,1.65,0,0,0,388,5.91H357a1.65,1.65,0,0,0-1.65,1.65v94.3a1.65,1.65,0,0,0,1.65,1.65h31a1.65,1.65,0,0,0,1.65-1.65v-9A1.64,1.64,0,0,0,388,91.27H369.27a1.65,1.65,0,0,1-1.65-1.65V19.81a1.65,1.65,0,0,1,1.65-1.65H388A1.65,1.65,0,0,0,389.67,16.51Z"/><path class="cls-6" d="M433.67,5.91H404.78a5.72,5.72,0,0,0-5.71,5.72V98.32a5.19,5.19,0,0,0,5.19,5.19h29.93a5.19,5.19,0,0,0,5.19-5.19V71.81a1.63,1.63,0,0,0-1.63-1.63h-9a1.63,1.63,0,0,0-1.62,1.63v16.9a2.56,2.56,0,0,1-2.56,2.56H413.87a2.56,2.56,0,0,1-2.56-2.56v-68a2.56,2.56,0,0,1,2.56-2.56h10.71a2.56,2.56,0,0,1,2.56,2.56V35.66a1.78,1.78,0,0,0,1.78,1.79h8.68a1.79,1.79,0,0,0,1.78-1.79v-24A5.71,5.71,0,0,0,433.67,5.91Z"/><path class="cls-7" d="M189.71,7.59V63.37L172.55,7.1a1.7,1.7,0,0,0-1.61-1.19h-9.32a1.68,1.68,0,0,0-1.68,1.68v94.24a1.68,1.68,0,0,0,1.68,1.68h8.89a1.68,1.68,0,0,0,1.68-1.68V45.89l17.17,56.46a1.64,1.64,0,0,0,1.57,1.16h9.35a1.68,1.68,0,0,0,1.68-1.68V7.59a1.68,1.68,0,0,0-1.68-1.68h-8.89A1.68,1.68,0,0,0,189.71,7.59Z"/><path class="cls-8" d="M251.39,5.91h-8.94a1.64,1.64,0,0,0-1.61,1.38l-9.37,58.36L222.1,7.28a1.61,1.61,0,0,0-1.6-1.37h-8.95a1.63,1.63,0,0,0-1.61,1.89l15.27,94.35a1.61,1.61,0,0,0,1.6,1.36h9.32a1.63,1.63,0,0,0,1.61-1.37L253,7.8A1.63,1.63,0,0,0,251.39,5.91Z"/><path class="cls-9" d="M337.07,58.3h0a8,8,0,0,0,8-8v-36a8.42,8.42,0,0,0-8.41-8.41H306.35a1.64,1.64,0,0,0-1.63,1.64v94.33a1.63,1.63,0,0,0,1.63,1.63h9a1.63,1.63,0,0,0,1.63-1.63V19.79a1.63,1.63,0,0,1,1.63-1.63h12.56a1.63,1.63,0,0,1,1.63,1.63V47.5a1.63,1.63,0,0,1-1.63,1.63H320.38V58a1.69,1.69,0,0,0,.08.5l14,43.83a1.64,1.64,0,0,0,1.56,1.14h9.85a1.64,1.64,0,0,0,1.55-2.16l-13.22-39A3.07,3.07,0,0,1,337.07,58.3Z"/><path class="cls-10" d="M381.77,42.41c-3.48-1.2-24.42-7.5-28.09,12.36,0,0-7.47,2.78-6,4.62.51.65,2.93.72,3-1.26.07-1.56,2.27-2.73,3.21-3.17,1.42,1.4,11.22,10.5,21.05,7.39,15-4.76,11.89-15,19.21-19.7C394.14,42.65,385.26,43.61,381.77,42.41Z"/><path class="cls-11" d="M372.09,49.82c5.88.25,15-3.07,20.77-6.21a10.68,10.68,0,0,1,1.28-1s-8.88,1-12.37-.24-24-7.8-28.09,12.36C357.58,53.09,362.94,49.42,372.09,49.82Z"/><path class="cls-12" d="M162.67,117.58l-.75-2.07h-.09l.27,2v5.84h-2v-11.9h1.6l3.3,5.94.7,2h.1l-.26-2v-5.9h1.95v11.91h-1.59Z"/><path class="cls-12" d="M169.09,111.57h5.75v2h-3.68v2.91h3.34v2h-3.34v3h3.75v2h-5.82Z"/><path class="cls-12" d="M179.49,118.51l.23,2h.07l.26-2,1.68-6.93h2.18l-3.48,11.91h-1.58l-3.51-11.91h2.44Z"/><path class="cls-12" d="M188.26,120.69h-2.71l-.67,2.7h-2l3.33-11.9h1.63l3.35,11.9H189ZM186,119h1.9l-.65-2.75-.27-1.86h-.06l-.28,1.87Z"/><path class="cls-12" d="M191.93,111.57a5.82,5.82,0,0,1,.66-.07l.76,0,.74,0h.64a5.45,5.45,0,0,1,2.28.43,3.71,3.71,0,0,1,1.46,1.22,4.91,4.91,0,0,1,.78,1.88,11.59,11.59,0,0,1,.23,2.45,12,12,0,0,1-.22,2.36,5.57,5.57,0,0,1-.78,2,4.06,4.06,0,0,1-1.51,1.36,5.08,5.08,0,0,1-2.4.51l-.57,0-.76,0-.76,0-.55-.06Zm3,1.79h-.54a3,3,0,0,0-.41,0v8.14l.17,0h.26l.26,0h.18a2,2,0,0,0,1.21-.36,2.34,2.34,0,0,0,.75-.94,4.92,4.92,0,0,0,.38-1.36,11.9,11.9,0,0,0,.1-1.61,12.38,12.38,0,0,0-.09-1.51,4.29,4.29,0,0,0-.34-1.27,2.16,2.16,0,0,0-.72-.88A2.08,2.08,0,0,0,195,113.36Z"/><path class="cls-12" d="M205.05,120.69h-2.71l-.67,2.7h-2.06l3.34-11.9h1.62l3.36,11.9h-2.17ZM202.78,119h1.91l-.66-2.75-.26-1.86h-.07l-.28,1.87Z"/><path class="cls-12" d="M218,113.53h-2.71v9.86h-2.07v-9.86h-2.73v-2H218Z"/><path class="cls-12" d="M218.91,111.69a12,12,0,0,1,1.45-.22c.51,0,1-.07,1.33-.07a6.34,6.34,0,0,1,1.38.15,3,3,0,0,1,1.19.52,2.78,2.78,0,0,1,.84,1,3.79,3.79,0,0,1,.32,1.65,4.66,4.66,0,0,1-.52,2.34,2.72,2.72,0,0,1-1.42,1.24l.66.54,2.12,4.52h-2.39l-2-4.66-.89-.22v4.88h-2.07Zm2.07,5.37h.71a1.45,1.45,0,0,0,1.17-.48,2.36,2.36,0,0,0,.39-1.5,2.18,2.18,0,0,0-.33-1.24,1.16,1.16,0,0,0-1-.48l-.51,0a1.31,1.31,0,0,0-.4.07Z"/><path class="cls-12" d="M231.38,120.69h-2.71l-.67,2.7h-2.06l3.34-11.9h1.62l3.36,11.9h-2.17ZM229.11,119H231l-.66-2.75-.26-1.86H230l-.27,1.87Z"/><path class="cls-12" d="M241.14,122.92a2.63,2.63,0,0,1-1.14.54,6.33,6.33,0,0,1-1.42.17,4.5,4.5,0,0,1-1.66-.31,3.37,3.37,0,0,1-1.33-1,5.31,5.31,0,0,1-.91-1.91,11,11,0,0,1-.33-2.9,10.37,10.37,0,0,1,.37-3,5.44,5.44,0,0,1,1-1.88,3.41,3.41,0,0,1,1.37-1,4.51,4.51,0,0,1,1.56-.28,6.51,6.51,0,0,1,1.41.13,4.94,4.94,0,0,1,1,.31l-.41,1.87a3,3,0,0,0-.73-.26,4.88,4.88,0,0,0-1-.09,1.92,1.92,0,0,0-1.74,1,6.4,6.4,0,0,0-.61,3.17,9.82,9.82,0,0,0,.14,1.7,4.1,4.1,0,0,0,.45,1.32,2.34,2.34,0,0,0,.77.87,2,2,0,0,0,1.12.3,2.67,2.67,0,0,0,1-.16,4,4,0,0,0,.74-.38Z"/><path class="cls-12" d="M244.72,118.33h-.44v5.06h-2.07V111.57h2.07v5.24l.41-.2,2.41-5h2.33l-2.63,5-.77.63.79.64,3,5.58h-2.53Z"/><path class="cls-12" d="M254.84,120.35a1.46,1.46,0,0,0-.31-.92,4.56,4.56,0,0,0-.78-.72l-1-.69a5.73,5.73,0,0,1-1-.82,4.31,4.31,0,0,1-.78-1.12,3.55,3.55,0,0,1-.31-1.57,3.75,3.75,0,0,1,.25-1.46,2.54,2.54,0,0,1,.7-1,2.79,2.79,0,0,1,1.05-.56,4.92,4.92,0,0,1,1.3-.17,6.43,6.43,0,0,1,1.56.17,4.18,4.18,0,0,1,1.2.45l-.64,1.88a3.09,3.09,0,0,0-.83-.38,4.17,4.17,0,0,0-1.19-.16,1.58,1.58,0,0,0-1,.27.94.94,0,0,0-.34.79,1.27,1.27,0,0,0,.31.84,4.93,4.93,0,0,0,.78.7l1,.7a6.17,6.17,0,0,1,1,.84,3.93,3.93,0,0,1,.78,1.13,3.51,3.51,0,0,1,.32,1.55,4.3,4.3,0,0,1-.26,1.55,2.89,2.89,0,0,1-.72,1.09,3.08,3.08,0,0,1-1.13.65,4.71,4.71,0,0,1-1.46.22,7.22,7.22,0,0,1-1.78-.2,4.5,4.5,0,0,1-1.17-.46l.67-1.91a4.87,4.87,0,0,0,.9.41,3.87,3.87,0,0,0,1.23.2Q254.84,121.67,254.84,120.35Z"/><path class="cls-12" d="M261.56,111.69a11.79,11.79,0,0,1,1.44-.22c.52,0,1-.07,1.33-.07a6.34,6.34,0,0,1,1.38.15,3,3,0,0,1,1.19.52,2.69,2.69,0,0,1,.84,1,3.79,3.79,0,0,1,.32,1.65,4.66,4.66,0,0,1-.52,2.34,2.72,2.72,0,0,1-1.42,1.24l.66.54,2.12,4.52h-2.38l-2-4.66-.89-.22v4.88h-2.06Zm2.06,5.37h.71a1.43,1.43,0,0,0,1.17-.48,2.36,2.36,0,0,0,.39-1.5,2.18,2.18,0,0,0-.33-1.24,1.16,1.16,0,0,0-1-.48l-.51,0a1.31,1.31,0,0,0-.4.07Z"/><path class="cls-12" d="M269.9,111.57h5.75v2H272v2.91h3.33v2H272v3h3.74v2H269.9Z"/><path class="cls-12" d="M279.57,117.58l-.75-2.07h-.08l.26,2v5.84h-2v-11.9h1.6l3.3,5.94.71,2h.09l-.26-2v-5.9h2v11.91h-1.6Z"/><path class="cls-12" d="M286,111.57h5.75v2h-3.68v2.91h3.33v2h-3.33v3h3.74v2H286Z"/><path class="cls-12" d="M295.77,118.07l.16,2.13H296l.18-2.16,1.54-6.47h1.45l1.49,6.5.19,2.13h.06l.18-2.16,1-6.47h2.1l-2.58,11.91h-1.46L298.56,117l-.21-1.84h-.08l-.2,1.86-1.61,6.5h-1.53l-2.56-11.91h2.28Z"/><path class="cls-12" d="M309,120.69h-2.71l-.68,2.7h-2.05l3.33-11.9h1.63l3.35,11.9h-2.17ZM306.76,119h1.91l-.66-2.75-.26-1.86h-.07l-.28,1.87Z"/><path class="cls-12" d="M319.26,114.31a4.28,4.28,0,0,1-.09.87,3.26,3.26,0,0,1-.29.81,2.37,2.37,0,0,1-.52.67,2.09,2.09,0,0,1-.76.43v.11a2.68,2.68,0,0,1,.75.3,2,2,0,0,1,.61.55,2.55,2.55,0,0,1,.42.84,3.78,3.78,0,0,1,.16,1.18,3.64,3.64,0,0,1-.31,1.57,2.83,2.83,0,0,1-.82,1.09,3.44,3.44,0,0,1-1.2.63,5.38,5.38,0,0,1-1.47.2h-.59l-.78,0-.86-.08a4.79,4.79,0,0,1-.82-.15V111.66c.36-.07.81-.13,1.34-.18s1.06-.08,1.58-.08a7.82,7.82,0,0,1,1.39.12,3.35,3.35,0,0,1,1.17.44,2.28,2.28,0,0,1,.79.89A3.1,3.1,0,0,1,319.26,114.31Zm-4,2.28.42,0a1.78,1.78,0,0,0,.39-.06,1.84,1.84,0,0,0,.81-.6,1.7,1.7,0,0,0,.34-1.1,2,2,0,0,0-.12-.74,1.15,1.15,0,0,0-.31-.49,1.25,1.25,0,0,0-.47-.25,2.15,2.15,0,0,0-.58-.07,5.08,5.08,0,0,0-.95.06v3.28Zm.56,5.13a1.51,1.51,0,0,0,1.14-.46,1.84,1.84,0,0,0,.44-1.33,2.2,2.2,0,0,0-.15-.89,1.32,1.32,0,0,0-.39-.5,1.3,1.3,0,0,0-.57-.23,4.65,4.65,0,0,0-.66,0h-.84v3.36a2.18,2.18,0,0,0,.45.08Z"/><path class="cls-12" d="M326.93,123.39h-6.11V111.57h2.07v9.86h4Z"/><path class="cls-12" d="M327.87,111.57h5.75v2h-3.68v2.91h3.33v2h-3.33v3h3.74v2h-5.81Z"/><path class="cls-12" d="M338.46,111.57h5.75v2h-3.68v2.91h3.34v2h-3.34v3h3.75v2h-5.82Z"/><path class="cls-12" d="M348.13,117.58l-.75-2.07h-.08l.26,2v5.84h-1.95v-11.9h1.59l3.3,5.94.71,2h.1l-.27-2v-5.9h2v11.91h-1.6Z"/><path class="cls-12" d="M354.56,111.57h5.75v2h-3.68v2.91H360v2h-3.33v3h3.74v2h-5.81Z"/><path class="cls-12" d="M361.7,111.69a12,12,0,0,1,1.45-.22c.51,0,1-.07,1.33-.07a6.34,6.34,0,0,1,1.38.15,3,3,0,0,1,1.19.52,2.88,2.88,0,0,1,.84,1,3.79,3.79,0,0,1,.32,1.65,4.66,4.66,0,0,1-.52,2.34,2.76,2.76,0,0,1-1.42,1.24l.66.54,2.11,4.52h-2.38l-2-4.66-.89-.22v4.88H361.7Zm2.07,5.37h.71a1.45,1.45,0,0,0,1.17-.48,2.36,2.36,0,0,0,.39-1.5,2.18,2.18,0,0,0-.33-1.24,1.16,1.16,0,0,0-1-.48l-.51,0a1.31,1.31,0,0,0-.4.07Z"/><path class="cls-12" d="M373.1,117.28h3.55v5.23a3.57,3.57,0,0,1-1.42.86,5.38,5.38,0,0,1-1.62.26,4.23,4.23,0,0,1-1.76-.36,3.26,3.26,0,0,1-1.33-1.1,5.53,5.53,0,0,1-.86-1.91,11.21,11.21,0,0,1-.3-2.78,9.79,9.79,0,0,1,.36-2.85,5.55,5.55,0,0,1,1-1.9,3.48,3.48,0,0,1,1.4-1.06,4.34,4.34,0,0,1,1.68-.33,6.46,6.46,0,0,1,1.44.14,6.56,6.56,0,0,1,1.07.33l-.42,1.84a3.66,3.66,0,0,0-.77-.25,4.59,4.59,0,0,0-1.06-.1,2.24,2.24,0,0,0-1,.23,2.06,2.06,0,0,0-.79.74,4.08,4.08,0,0,0-.49,1.31,9,9,0,0,0-.17,1.92,6.16,6.16,0,0,0,.63,3.16,1.91,1.91,0,0,0,1.67,1,2,2,0,0,0,.63-.1,1.39,1.39,0,0,0,.53-.33V118.8l-1.89-.26Z"/><path class="cls-12" d="M380.23,119l-3.09-7.43h2.47l1.59,4.48.17,1.28h.08l.18-1.32,1.56-4.44h2.22L382.3,119v4.4h-2.07Z"/><path class="cls-12" d="M395.56,122.92a2.63,2.63,0,0,1-1.14.54,6.33,6.33,0,0,1-1.42.17,4.5,4.5,0,0,1-1.66-.31,3.39,3.39,0,0,1-1.34-1,5.47,5.47,0,0,1-.9-1.91,11,11,0,0,1-.33-2.9,10.37,10.37,0,0,1,.37-3,5.44,5.44,0,0,1,1-1.88,3.41,3.41,0,0,1,1.37-1,4.51,4.51,0,0,1,1.56-.28,6.51,6.51,0,0,1,1.41.13,4.94,4.94,0,0,1,1,.31l-.42,1.87a2.71,2.71,0,0,0-.73-.26,4.78,4.78,0,0,0-1-.09,1.91,1.91,0,0,0-1.74,1,6.29,6.29,0,0,0-.61,3.17,9.82,9.82,0,0,0,.14,1.7,4.36,4.36,0,0,0,.44,1.32,2.36,2.36,0,0,0,.78.87,2,2,0,0,0,1.12.3,2.71,2.71,0,0,0,1-.16,4,4,0,0,0,.74-.38Z"/><path class="cls-12" d="M396.62,111.69a12.27,12.27,0,0,1,1.45-.22c.51,0,1-.07,1.33-.07a6.34,6.34,0,0,1,1.38.15,3,3,0,0,1,1.19.52,2.69,2.69,0,0,1,.84,1,3.79,3.79,0,0,1,.32,1.65,4.66,4.66,0,0,1-.52,2.34,2.72,2.72,0,0,1-1.42,1.24l.66.54,2.12,4.52h-2.38l-2-4.66-.89-.22v4.88h-2.07Zm2.07,5.37h.71a1.43,1.43,0,0,0,1.17-.48,2.36,2.36,0,0,0,.39-1.5,2.18,2.18,0,0,0-.33-1.24,1.16,1.16,0,0,0-1-.48l-.51,0a1.31,1.31,0,0,0-.4.07Z"/><path class="cls-12" d="M405,111.57h5.75v2H407v2.91h3.33v2H407v3h3.74v2H405Z"/><path class="cls-12" d="M412.11,111.57a6,6,0,0,1,.67-.07l.76,0,.74,0h.64a5.45,5.45,0,0,1,2.28.43,3.71,3.71,0,0,1,1.46,1.22,4.91,4.91,0,0,1,.78,1.88,12.29,12.29,0,0,1,.23,2.45,12,12,0,0,1-.22,2.36,5.57,5.57,0,0,1-.78,2,4.06,4.06,0,0,1-1.51,1.36,5.08,5.08,0,0,1-2.4.51l-.58,0-.75,0-.76,0-.56-.06Zm3,1.79h-.54a3.32,3.32,0,0,0-.42,0v8.14l.18,0h.26l.26,0h.17a2,2,0,0,0,1.22-.36,2.34,2.34,0,0,0,.75-.94,5.29,5.29,0,0,0,.38-1.36,11.9,11.9,0,0,0,.1-1.61,12.38,12.38,0,0,0-.09-1.51,4.29,4.29,0,0,0-.34-1.27,2.1,2.1,0,0,0-.73-.88A2,2,0,0,0,415.14,113.36Z"/><path class="cls-12" d="M421.16,111.57h2.07v11.82h-2.07Z"/><path class="cls-12" d="M431.87,113.53h-2.71v9.86h-2.07v-9.86h-2.72v-2h7.5Z"/><path class="cls-12" d="M436.85,120.35a1.4,1.4,0,0,0-.31-.92,4.56,4.56,0,0,0-.78-.72q-.47-.33-1-.69a5.73,5.73,0,0,1-1-.82,4.31,4.31,0,0,1-.78-1.12,3.55,3.55,0,0,1-.31-1.57,3.75,3.75,0,0,1,.25-1.46,2.65,2.65,0,0,1,.7-1,3,3,0,0,1,1.05-.56,5,5,0,0,1,1.3-.17,6.43,6.43,0,0,1,1.56.17,4.18,4.18,0,0,1,1.2.45l-.64,1.88a3,3,0,0,0-.83-.38,4.13,4.13,0,0,0-1.19-.16,1.58,1.58,0,0,0-1,.27.94.94,0,0,0-.34.79,1.27,1.27,0,0,0,.31.84,4.93,4.93,0,0,0,.78.7l1,.7a5.84,5.84,0,0,1,1,.84,4.37,4.37,0,0,1,.78,1.13,3.51,3.51,0,0,1,.31,1.55,4.54,4.54,0,0,1-.25,1.55,2.91,2.91,0,0,1-.73,1.09,3,3,0,0,1-1.12.65,4.81,4.81,0,0,1-1.46.22,7.3,7.3,0,0,1-1.79-.2,4.5,4.5,0,0,1-1.17-.46l.67-1.91a4.7,4.7,0,0,0,.91.41,3.78,3.78,0,0,0,1.23.2C436.3,121.67,436.85,121.23,436.85,120.35Z"/></svg>